<svg width="400" height="440" viewBox="0 0 400 440" fill="none" xmlns="http://www.w3.org/2000/svg">
  <rect width="400" height="440" rx="32" fill="#151922"/>
  <circle cx="318" cy="74" r="70" fill="#91FF63" fill-opacity="0.18"/>
  <rect x="95" y="265" width="210" height="120" rx="30" fill="#E8EDF5"/>
  <rect x="124" y="98" width="152" height="166" rx="76" fill="#E3B391"/>
  <path d="M106 146C106 92 150 48 204 48C258 48 302 92 302 146V177H106V146Z" fill="#222834"/>
  <path d="M90 259C90 223 119 194 155 194H245C281 194 310 223 310 259V296H90V259Z" fill="#91FF63"/>
  <path d="M100 361C131 378 165 386 202 386C236 386 269 379 300 364V387C300 398 291 407 280 407H120C109 407 100 398 100 387V361Z" fill="#202633"/>
</svg>
